<svg version="1.1" viewBox="0.0 0.0 500.0 500.0" fill="none" stroke="none" stroke-linecap="square" stroke-miterlimit="10" xmlns:xlink="http://www.w3.org/1999/xlink" xmlns="http://www.w3.org/2000/svg"><clipPath id="p.0"><path d="m0 0l500.0 0l0 500.0l-500.0 0l0 -500.0z" clip-rule="nonzero"/></clipPath><g clip-path="url(#p.0)"><path fill="#000000" fill-opacity="0.0" d="m0 0l500.0 0l0 500.0l-500.0 0z" fill-rule="evenodd"/><path fill="#000000" fill-opacity="0.0" d="m161.25078 231.4464l1.9212646 26.582687" fill-rule="evenodd"/><path stroke="#000000" stroke-width="3.0" stroke-linejoin="round" stroke-linecap="butt" d="m161.25078 231.4464l1.9212646 26.582687" fill-rule="evenodd"/><path fill="#6aa84f" d="m385.9039 319.937l0 0c-36.97766 39.291412 -93.37787 53.58716 -144.6069 36.653442c-51.22902 -16.933716 -87.99838 -62.02658 -94.274506 -115.615524z" fill-rule="evenodd"/><path stroke="#000000" stroke-width="1.0" stroke-linejoin="round" stroke-linecap="butt" d="m385.9039 319.937l0 0c-36.97766 39.291412 -93.37787 53.58716 -144.6069 36.653442c-51.22902 -16.933716 -87.99838 -62.02658 -94.274506 -115.615524z" fill-rule="evenodd"/><path fill="#ffffff" d="m309.69708 284.28726l55.3071 -162.83464l23.716522 189.6693z" fill-rule="evenodd"/><path stroke="#000000" stroke-width="1.0" stroke-linejoin="round" stroke-linecap="butt" d="m309.69708 284.28726l55.3071 -162.83464l23.716522 189.6693z" fill-rule="evenodd"/><path fill="#ffffff" d="m292.72186 279.9362l72.15747 -209.66931l-173.92125 174.61417z" fill-rule="evenodd"/><path stroke="#000000" stroke-width="1.0" stroke-linejoin="round" stroke-linecap="butt" d="m292.72186 279.9362l72.15747 -209.66931l-173.92125 174.61417z" fill-rule="evenodd"/><path fill="#b7b7b7" d="m82.513954 364.0185c4.9783936 -31.409698 31.991386 -54.579742 63.7929 -54.7175c31.801498 -0.13775635 59.014206 22.797424 64.26451 54.16281z" fill-rule="evenodd"/><path stroke="#000000" stroke-width="1.0" stroke-linejoin="round" stroke-linecap="butt" d="m82.513954 364.0185c4.9783936 -31.409698 31.991386 -54.579742 63.7929 -54.7175c31.801498 -0.13775635 59.014206 22.797424 64.26451 54.16281z" fill-rule="evenodd"/><path fill="#4a86e8" d="m64.62861 350.66403l48.27034 -20.112854l7.0393753 23.128601l50.278214 -20.112854l13.073486 21.118103l51.283463 -19.10498l12.068253 18.099731l46.257217 -17.094482l16.089233 15.083984l51.283478 -16.089233l31.173218 17.094482l3.653534 13.637817l-333.48557 -1.5722046z" fill-rule="evenodd"/><path stroke="#000000" stroke-width="1.0" stroke-linejoin="round" stroke-linecap="butt" d="m64.62861 350.66403l48.27034 -20.112854l7.0393753 23.128601l50.278214 -20.112854l13.073486 21.118103l51.283463 -19.10498l12.068253 18.099731l46.257217 -17.094482l16.089233 15.083984l51.283478 -16.089233l31.173218 17.094482l3.653534 13.637817l-333.48557 -1.5722046z" fill-rule="evenodd"/><path fill="#85200c" d="m144.07217 224.33078l0 0c0 -5.5576324 4.505356 -10.062988 10.063004 -10.062988l0 0c2.668869 0 5.228424 1.0601959 7.1156006 2.9473877c1.8871765 1.8871765 2.9473877 4.4467316 2.9473877 7.1156006l0 0c0 5.5576324 -4.505356 10.062988 -10.062988 10.062988l0 0c-5.5576477 0 -10.063004 -4.505356 -10.063004 -10.062988z" fill-rule="evenodd"/><path stroke="#85200c" stroke-width="2.0" stroke-linejoin="round" stroke-linecap="butt" d="m144.07217 224.33078l0 0c0 -5.5576324 4.505356 -10.062988 10.063004 -10.062988l0 0c2.668869 0 5.228424 1.0601959 7.1156006 2.9473877c1.8871765 1.8871765 2.9473877 4.4467316 2.9473877 7.1156006l0 0c0 5.5576324 -4.505356 10.062988 -10.062988 10.062988l0 0c-5.5576477 0 -10.063004 -4.505356 -10.063004 -10.062988z" fill-rule="evenodd"/><path fill="#000000" fill-opacity="0.0" d="m139.07742 179.57742l46.267715 0l0 41.228348l-46.267715 0z" fill-rule="evenodd"/><path fill="#000000" d="m153.59305 193.24742q1.4375 0 2.390625 0.4375q0.953125 0.421875 1.421875 1.140625q0.484375 0.71875 0.484375 1.546875q0 0.90625 -0.359375 1.484375q-0.34375 0.5625 -0.859375 0.953125q-0.5 0.390625 -1.03125 0.734375q-0.515625 0.328125 -0.859375 0.75q-0.34375 0.40625 -0.34375 1.0625l0 0.390625l-2.703125 0l0 -0.484375q0 -0.953125 0.3125 -1.5625q0.3125 -0.625 0.765625 -1.015625q0.46875 -0.390625 0.921875 -0.671875q0.46875 -0.296875 0.78125 -0.609375q0.3125 -0.3125 0.3125 -0.78125q0 -0.515625 -0.421875 -0.78125q-0.421875 -0.28125 -1.078125 -0.28125q-0.625 0 -1.234375 0.28125q-0.59375 0.28125 -1.109375 0.859375l-1.859375 -1.453125q0.796875 -0.9375 1.90625 -1.46875q1.109375 -0.53125 2.5625 -0.53125zm-0.484375 10.1875q0.703125 0 1.1875 0.5q0.5 0.5 0.5 1.1875q0 0.6875 -0.5 1.1875q-0.484375 0.5 -1.1875 0.5q-0.703125 0 -1.1875 -0.5q-0.484375 -0.5 -0.484375 -1.1875q0 -0.6875 0.484375 -1.1875q0.484375 -0.5 1.1875 -0.5z" fill-rule="nonzero"/><path fill="#000000" fill-opacity="0.0" d="m162.67323 241.2021l11.748032 -6.8031464" fill-rule="evenodd"/><path stroke="#000000" stroke-width="2.0" stroke-linejoin="round" stroke-linecap="butt" d="m162.67323 241.2021l11.748032 -6.8031464" fill-rule="evenodd"/><path fill="#000000" fill-opacity="0.0" d="m173.73885 234.66405l-11.527557 -13.858276" fill-rule="evenodd"/><path stroke="#000000" stroke-width="2.0" stroke-linejoin="round" stroke-linecap="butt" d="m173.73885 234.66405l-11.527557 -13.858276" fill-rule="evenodd"/></g></svg>