<svg version="1.1" viewBox="0.0 0.0 960.0 720.0" fill="none" stroke="none" stroke-linecap="square" stroke-miterlimit="10" xmlns:xlink="http://www.w3.org/1999/xlink" xmlns="http://www.w3.org/2000/svg"><clipPath id="p.0"><path d="m0 0l960.0 0l0 720.0l-960.0 0l0 -720.0z" clip-rule="nonzero"/></clipPath><g clip-path="url(#p.0)"><path fill="#000000" fill-opacity="0.0" d="m0 0l960.0 0l0 720.0l-960.0 0z" fill-rule="evenodd"/><path fill="#757575" d="m165.8819 182.18898l1.8530121 82.47505l-9.08136 0.74017334l-23.167984 101.380585l-69.31759 88.96323l-42.07086 28.543335l-12.973753 17.236206l0.5564308 10.564301l3.1496058 2.5932007l14.826772 26.317566l25.391077 1.8556519l21.31496 46.146973l793.6221 2.0393677l1.1102295 1.8530273l10.380554 -2.2230835l17.97638 -48.559082l8.897644 -0.74017334l1.4829712 1.666687l9.635132 -0.37005615l17.979004 -31.692932l-0.37005615 -10.37796l-11.677185 -15.383209l-38.364807 -30.396301l-54.67456 -87.8504l-20.202087 -101.0105l-10.750671 -4.2624817l1.8530273 -81.918625z" fill-rule="evenodd"/><path stroke="#000000" stroke-width="1.0" stroke-linejoin="round" stroke-linecap="butt" d="m165.8819 182.18898l1.8530121 82.47505l-9.08136 0.74017334l-23.167984 101.380585l-69.31759 88.96323l-42.07086 28.543335l-12.973753 17.236206l0.5564308 10.564301l3.1496058 2.5932007l14.826772 26.317566l25.391077 1.8556519l21.31496 46.146973l793.6221 2.0393677l1.1102295 1.8530273l10.380554 -2.2230835l17.97638 -48.559082l8.897644 -0.74017334l1.4829712 1.666687l9.635132 -0.37005615l17.979004 -31.692932l-0.37005615 -10.37796l-11.677185 -15.383209l-38.364807 -30.396301l-54.67456 -87.8504l-20.202087 -101.0105l-10.750671 -4.2624817l1.8530273 -81.918625z" fill-rule="evenodd"/><path fill="#000000" fill-opacity="0.0" d="m166.0 181.76115l1.9685059 82.75328l-9.850403 0.49343872l-22.658783 101.46982l-68.46982 88.66403l-41.868767 28.56955l-14.283464 18.225739l925.5538 -1.4776917l-11.328064 -15.761169l-37.92914 -30.047241l-55.170593 -88.17322l-19.700806 -100.485565l-9.359558 -3.9396362" fill-rule="evenodd"/><path stroke="#000000" stroke-width="1.0" stroke-linejoin="round" stroke-linecap="butt" d="m166.0 181.76115l1.9685059 82.75328l-9.850403 0.49343872l-22.658783 101.46982l-68.46982 88.66403l-41.868767 28.56955l-14.283464 18.225739l925.5538 -1.4776917l-11.328064 -15.761169l-37.92914 -30.047241l-55.170593 -88.17322l-19.700806 -100.485565l-9.359558 -3.9396362" fill-rule="evenodd"/><path fill="#000000" fill-opacity="0.0" d="m165.50656 182.2546l637.8871 -1.9711304l-1.9685059 81.76903" fill-rule="evenodd"/><path stroke="#000000" stroke-width="1.0" stroke-linejoin="round" stroke-linecap="butt" d="m165.50656 182.2546l637.8871 -1.9711304l-1.9685059 81.76903" fill-rule="evenodd"/><path fill="#ffffff" d="m175.33333 191.65623l0 0c0 -1.8148956 1.4712677 -3.2861633 3.2861633 -3.2861633l33.52217 0c0.8715515 0 1.7073975 0.34622192 2.3236694 0.9624939c0.616272 0.616272 0.9624939 1.4521332 0.9624939 2.3236694l0 13.144226c0 1.8148956 -1.4712677 3.286148 -3.2861633 3.286148l-33.52217 0c-1.8148956 0 -3.2861633 -1.4712524 -3.2861633 -3.286148z" fill-rule="evenodd"/><path stroke="#000000" stroke-width="1.0" stroke-linejoin="round" stroke-linecap="butt" d="m175.33333 191.65623l0 0c0 -1.8148956 1.4712677 -3.2861633 3.2861633 -3.2861633l33.52217 0c0.8715515 0 1.7073975 0.34622192 2.3236694 0.9624939c0.616272 0.616272 0.9624939 1.4521332 0.9624939 2.3236694l0 13.144226c0 1.8148956 -1.4712677 3.286148 -3.2861633 3.286148l-33.52217 0c-1.8148956 0 -3.2861633 -1.4712524 -3.2861633 -3.286148z" fill-rule="evenodd"/><path fill="#ffffff" d="m224.08661 191.65623l0 0c0 -1.8148956 1.4712677 -3.2861633 3.2861633 -3.2861633l33.522186 0c0.871521 0 1.707367 0.34622192 2.323639 0.9624939c0.616272 0.616272 0.9624939 1.4521332 0.9624939 2.3236694l0 13.144226c0 1.8148956 -1.4712524 3.286148 -3.2861328 3.286148l-33.522186 0c-1.8148956 0 -3.2861633 -1.4712524 -3.2861633 -3.286148z" fill-rule="evenodd"/><path stroke="#000000" stroke-width="1.0" stroke-linejoin="round" stroke-linecap="butt" d="m224.08661 191.65623l0 0c0 -1.8148956 1.4712677 -3.2861633 3.2861633 -3.2861633l33.522186 0c0.871521 0 1.707367 0.34622192 2.323639 0.9624939c0.616272 0.616272 0.9624939 1.4521332 0.9624939 2.3236694l0 13.144226c0 1.8148956 -1.4712524 3.286148 -3.2861328 3.286148l-33.522186 0c-1.8148956 0 -3.2861633 -1.4712524 -3.2861633 -3.286148z" fill-rule="evenodd"/><path fill="#ffffff" d="m273.65616 191.65623l0 0c0 -1.8148956 1.471283 -3.2861633 3.2861633 -3.2861633l33.522186 0c0.871521 0 1.707367 0.34622192 2.3236694 0.9624939c0.616272 0.616272 0.9624939 1.4521332 0.9624939 2.3236694l0 13.144226c0 1.8148956 -1.471283 3.286148 -3.2861633 3.286148l-33.522186 0c-1.8148804 0 -3.2861633 -1.4712524 -3.2861633 -3.286148z" fill-rule="evenodd"/><path stroke="#000000" stroke-width="1.0" stroke-linejoin="round" stroke-linecap="butt" d="m273.65616 191.65623l0 0c0 -1.8148956 1.471283 -3.2861633 3.2861633 -3.2861633l33.522186 0c0.871521 0 1.707367 0.34622192 2.3236694 0.9624939c0.616272 0.616272 0.9624939 1.4521332 0.9624939 2.3236694l0 13.144226c0 1.8148956 -1.471283 3.286148 -3.2861633 3.286148l-33.522186 0c-1.8148804 0 -3.2861633 -1.4712524 -3.2861633 -3.286148z" fill-rule="evenodd"/><path fill="#ffffff" d="m323.2257 191.65623l0 0c0 -1.8148956 1.471283 -3.2861633 3.2861633 -3.2861633l33.522186 0c0.8715515 0 1.7073975 0.34622192 2.3236694 0.9624939c0.616272 0.616272 0.9624939 1.4521332 0.9624939 2.3236694l0 13.144226c0 1.8148956 -1.471283 3.286148 -3.2861633 3.286148l-33.522186 0c-1.8148804 0 -3.2861633 -1.4712524 -3.2861633 -3.286148z" fill-rule="evenodd"/><path stroke="#000000" stroke-width="1.0" stroke-linejoin="round" stroke-linecap="butt" d="m323.2257 191.65623l0 0c0 -1.8148956 1.471283 -3.2861633 3.2861633 -3.2861633l33.522186 0c0.8715515 0 1.7073975 0.34622192 2.3236694 0.9624939c0.616272 0.616272 0.9624939 1.4521332 0.9624939 2.3236694l0 13.144226c0 1.8148956 -1.471283 3.286148 -3.2861633 3.286148l-33.522186 0c-1.8148804 0 -3.2861633 -1.4712524 -3.2861633 -3.286148z" fill-rule="evenodd"/><path fill="#ffffff" d="m372.7953 191.65623l0 0c0 -1.8148956 1.4712524 -3.2861633 3.2861328 -3.2861633l33.522186 0c0.8715515 0 1.7073975 0.34622192 2.3236694 0.9624939c0.616272 0.616272 0.9624939 1.4521332 0.9624939 2.3236694l0 13.144226c0 1.8148956 -1.471283 3.286148 -3.2861633 3.286148l-33.522186 0c-1.8148804 0 -3.2861328 -1.4712524 -3.2861328 -3.286148z" fill-rule="evenodd"/><path stroke="#000000" stroke-width="1.0" stroke-linejoin="round" stroke-linecap="butt" d="m372.7953 191.65623l0 0c0 -1.8148956 1.4712524 -3.2861633 3.2861328 -3.2861633l33.522186 0c0.8715515 0 1.7073975 0.34622192 2.3236694 0.9624939c0.616272 0.616272 0.9624939 1.4521332 0.9624939 2.3236694l0 13.144226c0 1.8148956 -1.471283 3.286148 -3.2861633 3.286148l-33.522186 0c-1.8148804 0 -3.2861328 -1.4712524 -3.2861328 -3.286148z" fill-rule="evenodd"/><path fill="#ffffff" d="m423.34384 191.65623l0 0c0 -1.8148956 1.4712524 -3.2861633 3.2861328 -3.2861633l33.522186 0c0.8715515 0 1.7073975 0.34622192 2.3236694 0.9624939c0.616272 0.616272 0.9624939 1.4521332 0.9624939 2.3236694l0 13.144226c0 1.8148956 -1.4712524 3.286148 -3.2861633 3.286148l-33.522186 0c-1.8148804 0 -3.2861328 -1.4712524 -3.2861328 -3.286148z" fill-rule="evenodd"/><path stroke="#000000" stroke-width="1.0" stroke-linejoin="round" stroke-linecap="butt" d="m423.34384 191.65623l0 0c0 -1.8148956 1.4712524 -3.2861633 3.2861328 -3.2861633l33.522186 0c0.8715515 0 1.7073975 0.34622192 2.3236694 0.9624939c0.616272 0.616272 0.9624939 1.4521332 0.9624939 2.3236694l0 13.144226c0 1.8148956 -1.4712524 3.286148 -3.2861633 3.286148l-33.522186 0c-1.8148804 0 -3.2861328 -1.4712524 -3.2861328 -3.286148z" fill-rule="evenodd"/><path fill="#ffffff" d="m472.9029 191.65623l0 0c0 -1.8148956 1.4712524 -3.2861633 3.2861633 -3.2861633l33.522156 0c0.8715515 0 1.7073975 0.34622192 2.3237 0.9624939c0.616272 0.616272 0.9624634 1.4521332 0.9624634 2.3236694l0 13.144226c0 1.8148956 -1.4712524 3.286148 -3.2861633 3.286148l-33.522156 0c-1.8149109 0 -3.2861633 -1.4712524 -3.2861633 -3.286148z" fill-rule="evenodd"/><path stroke="#000000" stroke-width="1.0" stroke-linejoin="round" stroke-linecap="butt" d="m472.9029 191.65623l0 0c0 -1.8148956 1.4712524 -3.2861633 3.2861633 -3.2861633l33.522156 0c0.8715515 0 1.7073975 0.34622192 2.3237 0.9624939c0.616272 0.616272 0.9624634 1.4521332 0.9624634 2.3236694l0 13.144226c0 1.8148956 -1.4712524 3.286148 -3.2861633 3.286148l-33.522156 0c-1.8149109 0 -3.2861633 -1.4712524 -3.2861633 -3.286148z" fill-rule="evenodd"/><path fill="#ffffff" d="m523.4619 191.65623l0 0c0 -1.8148956 1.4713135 -3.2861633 3.2861938 -3.2861633l33.522156 0c0.87158203 0 1.7073975 0.34622192 2.3236694 0.9624939c0.616272 0.616272 0.9625244 1.4521332 0.9625244 2.3236694l0 13.144226c0 1.8148956 -1.4713135 3.286148 -3.2861938 3.286148l-33.522156 0c-1.8148804 0 -3.2861938 -1.4712524 -3.2861938 -3.286148z" fill-rule="evenodd"/><path stroke="#000000" stroke-width="1.0" stroke-linejoin="round" stroke-linecap="butt" d="m523.4619 191.65623l0 0c0 -1.8148956 1.4713135 -3.2861633 3.2861938 -3.2861633l33.522156 0c0.87158203 0 1.7073975 0.34622192 2.3236694 0.9624939c0.616272 0.616272 0.9625244 1.4521332 0.9625244 2.3236694l0 13.144226c0 1.8148956 -1.4713135 3.286148 -3.2861938 3.286148l-33.522156 0c-1.8148804 0 -3.2861938 -1.4712524 -3.2861938 -3.286148z" fill-rule="evenodd"/><path fill="#ffffff" d="m175.33333 229.1208l0 0c0 -1.8148956 1.4712677 -3.2861633 3.2861633 -3.2861633l33.52217 0c0.8715515 0 1.7073975 0.34622192 2.3236694 0.9624939c0.616272 0.616272 0.9624939 1.4521179 0.9624939 2.3236694l0 13.144226c0 1.8148956 -1.4712677 3.286148 -3.2861633 3.286148l-33.52217 0c-1.8148956 0 -3.2861633 -1.4712524 -3.2861633 -3.286148z" fill-rule="evenodd"/><path stroke="#000000" stroke-width="1.0" stroke-linejoin="round" stroke-linecap="butt" d="m175.33333 229.1208l0 0c0 -1.8148956 1.4712677 -3.2861633 3.2861633 -3.2861633l33.52217 0c0.8715515 0 1.7073975 0.34622192 2.3236694 0.9624939c0.616272 0.616272 0.9624939 1.4521179 0.9624939 2.3236694l0 13.144226c0 1.8148956 -1.4712677 3.286148 -3.2861633 3.286148l-33.52217 0c-1.8148956 0 -3.2861633 -1.4712524 -3.2861633 -3.286148z" fill-rule="evenodd"/><path fill="#ffffff" d="m224.08661 229.1208l0 0c0 -1.8148956 1.4712677 -3.2861633 3.2861633 -3.2861633l33.522186 0c0.871521 0 1.707367 0.34622192 2.323639 0.9624939c0.616272 0.616272 0.9624939 1.4521179 0.9624939 2.3236694l0 13.144226c0 1.8148956 -1.4712524 3.286148 -3.2861328 3.286148l-33.522186 0c-1.8148956 0 -3.2861633 -1.4712524 -3.2861633 -3.286148z" fill-rule="evenodd"/><path stroke="#000000" stroke-width="1.0" stroke-linejoin="round" stroke-linecap="butt" d="m224.08661 229.1208l0 0c0 -1.8148956 1.4712677 -3.2861633 3.2861633 -3.2861633l33.522186 0c0.871521 0 1.707367 0.34622192 2.323639 0.9624939c0.616272 0.616272 0.9624939 1.4521179 0.9624939 2.3236694l0 13.144226c0 1.8148956 -1.4712524 3.286148 -3.2861328 3.286148l-33.522186 0c-1.8148956 0 -3.2861633 -1.4712524 -3.2861633 -3.286148z" fill-rule="evenodd"/><path fill="#ffffff" d="m273.65616 229.1208l0 0c0 -1.8148956 1.471283 -3.2861633 3.2861633 -3.2861633l33.522186 0c0.871521 0 1.707367 0.34622192 2.3236694 0.9624939c0.616272 0.616272 0.9624939 1.4521179 0.9624939 2.3236694l0 13.144226c0 1.8148956 -1.471283 3.286148 -3.2861633 3.286148l-33.522186 0c-1.8148804 0 -3.2861633 -1.4712524 -3.2861633 -3.286148z" fill-rule="evenodd"/><path stroke="#000000" stroke-width="1.0" stroke-linejoin="round" stroke-linecap="butt" d="m273.65616 229.1208l0 0c0 -1.8148956 1.471283 -3.2861633 3.2861633 -3.2861633l33.522186 0c0.871521 0 1.707367 0.34622192 2.3236694 0.9624939c0.616272 0.616272 0.9624939 1.4521179 0.9624939 2.3236694l0 13.144226c0 1.8148956 -1.471283 3.286148 -3.2861633 3.286148l-33.522186 0c-1.8148804 0 -3.2861633 -1.4712524 -3.2861633 -3.286148z" fill-rule="evenodd"/><path fill="#ffffff" d="m323.2257 229.1208l0 0c0 -1.8148956 1.471283 -3.2861633 3.2861633 -3.2861633l33.522186 0c0.8715515 0 1.7073975 0.34622192 2.3236694 0.9624939c0.616272 0.616272 0.9624939 1.4521179 0.9624939 2.3236694l0 13.144226c0 1.8148956 -1.471283 3.286148 -3.2861633 3.286148l-33.522186 0c-1.8148804 0 -3.2861633 -1.4712524 -3.2861633 -3.286148z" fill-rule="evenodd"/><path stroke="#000000" stroke-width="1.0" stroke-linejoin="round" stroke-linecap="butt" d="m323.2257 229.1208l0 0c0 -1.8148956 1.471283 -3.2861633 3.2861633 -3.2861633l33.522186 0c0.8715515 0 1.7073975 0.34622192 2.3236694 0.9624939c0.616272 0.616272 0.9624939 1.4521179 0.9624939 2.3236694l0 13.144226c0 1.8148956 -1.471283 3.286148 -3.2861633 3.286148l-33.522186 0c-1.8148804 0 -3.2861633 -1.4712524 -3.2861633 -3.286148z" fill-rule="evenodd"/><path fill="#ffffff" d="m372.7953 229.1208l0 0c0 -1.8148956 1.4712524 -3.2861633 3.2861328 -3.2861633l33.522186 0c0.8715515 0 1.7073975 0.34622192 2.3236694 0.9624939c0.616272 0.616272 0.9624939 1.4521179 0.9624939 2.3236694l0 13.144226c0 1.8148956 -1.471283 3.286148 -3.2861633 3.286148l-33.522186 0c-1.8148804 0 -3.2861328 -1.4712524 -3.2861328 -3.286148z" fill-rule="evenodd"/><path stroke="#000000" stroke-width="1.0" stroke-linejoin="round" stroke-linecap="butt" d="m372.7953 229.1208l0 0c0 -1.8148956 1.4712524 -3.2861633 3.2861328 -3.2861633l33.522186 0c0.8715515 0 1.7073975 0.34622192 2.3236694 0.9624939c0.616272 0.616272 0.9624939 1.4521179 0.9624939 2.3236694l0 13.144226c0 1.8148956 -1.471283 3.286148 -3.2861633 3.286148l-33.522186 0c-1.8148804 0 -3.2861328 -1.4712524 -3.2861328 -3.286148z" fill-rule="evenodd"/><path fill="#ffffff" d="m423.34384 229.1208l0 0c0 -1.8148956 1.4712524 -3.2861633 3.2861328 -3.2861633l33.522186 0c0.8715515 0 1.7073975 0.34622192 2.3236694 0.9624939c0.616272 0.616272 0.9624939 1.4521179 0.9624939 2.3236694l0 13.144226c0 1.8148956 -1.4712524 3.286148 -3.2861633 3.286148l-33.522186 0c-1.8148804 0 -3.2861328 -1.4712524 -3.2861328 -3.286148z" fill-rule="evenodd"/><path stroke="#000000" stroke-width="1.0" stroke-linejoin="round" stroke-linecap="butt" d="m423.34384 229.1208l0 0c0 -1.8148956 1.4712524 -3.2861633 3.2861328 -3.2861633l33.522186 0c0.8715515 0 1.7073975 0.34622192 2.3236694 0.9624939c0.616272 0.616272 0.9624939 1.4521179 0.9624939 2.3236694l0 13.144226c0 1.8148956 -1.4712524 3.286148 -3.2861633 3.286148l-33.522186 0c-1.8148804 0 -3.2861328 -1.4712524 -3.2861328 -3.286148z" fill-rule="evenodd"/><path fill="#ffffff" d="m472.9029 229.1208l0 0c0 -1.8148956 1.4712524 -3.2861633 3.2861633 -3.2861633l33.522156 0c0.8715515 0 1.7073975 0.34622192 2.3237 0.9624939c0.616272 0.616272 0.9624634 1.4521179 0.9624634 2.3236694l0 13.144226c0 1.8148956 -1.4712524 3.286148 -3.2861633 3.286148l-33.522156 0c-1.8149109 0 -3.2861633 -1.4712524 -3.2861633 -3.286148z" fill-rule="evenodd"/><path stroke="#000000" stroke-width="1.0" stroke-linejoin="round" stroke-linecap="butt" d="m472.9029 229.1208l0 0c0 -1.8148956 1.4712524 -3.2861633 3.2861633 -3.2861633l33.522156 0c0.8715515 0 1.7073975 0.34622192 2.3237 0.9624939c0.616272 0.616272 0.9624634 1.4521179 0.9624634 2.3236694l0 13.144226c0 1.8148956 -1.4712524 3.286148 -3.2861633 3.286148l-33.522156 0c-1.8149109 0 -3.2861633 -1.4712524 -3.2861633 -3.286148z" fill-rule="evenodd"/><path fill="#ffffff" d="m523.4619 229.1208l0 0c0 -1.8148956 1.4713135 -3.2861633 3.2861938 -3.2861633l33.522156 0c0.87158203 0 1.7073975 0.34622192 2.3236694 0.9624939c0.616272 0.616272 0.9625244 1.4521179 0.9625244 2.3236694l0 13.144226c0 1.8148956 -1.4713135 3.286148 -3.2861938 3.286148l-33.522156 0c-1.8148804 0 -3.2861938 -1.4712524 -3.2861938 -3.286148z" fill-rule="evenodd"/><path stroke="#000000" stroke-width="1.0" stroke-linejoin="round" stroke-linecap="butt" d="m523.4619 229.1208l0 0c0 -1.8148956 1.4713135 -3.2861633 3.2861938 -3.2861633l33.522156 0c0.87158203 0 1.7073975 0.34622192 2.3236694 0.9624939c0.616272 0.616272 0.9625244 1.4521179 0.9625244 2.3236694l0 13.144226c0 1.8148956 -1.4713135 3.286148 -3.2861938 3.286148l-33.522156 0c-1.8148804 0 -3.2861938 -1.4712524 -3.2861938 -3.286148z" fill-rule="evenodd"/><path fill="#ffffff" d="m581.5197 191.65623l0 0c0 -1.8148956 1.4712524 -3.2861633 3.2861328 -3.2861633l33.522156 0c0.87158203 0 1.7073975 0.34622192 2.3236694 0.9624939c0.616272 0.616272 0.9625244 1.4521332 0.9625244 2.3236694l0 13.144226c0 1.8148956 -1.4713135 3.286148 -3.2861938 3.286148l-33.522156 0c-1.8148804 0 -3.2861328 -1.4712524 -3.2861328 -3.286148z" fill-rule="evenodd"/><path stroke="#000000" stroke-width="1.0" stroke-linejoin="round" stroke-linecap="butt" d="m581.5197 191.65623l0 0c0 -1.8148956 1.4712524 -3.2861633 3.2861328 -3.2861633l33.522156 0c0.87158203 0 1.7073975 0.34622192 2.3236694 0.9624939c0.616272 0.616272 0.9625244 1.4521332 0.9625244 2.3236694l0 13.144226c0 1.8148956 -1.4713135 3.286148 -3.2861938 3.286148l-33.522156 0c-1.8148804 0 -3.2861328 -1.4712524 -3.2861328 -3.286148z" fill-rule="evenodd"/><path fill="#ffffff" d="m632.06824 191.65623l0 0c0 -1.8148956 1.4712524 -3.2861633 3.2861328 -3.2861633l33.522217 0c0.871521 0 1.7073975 0.34622192 2.3236694 0.9624939c0.616272 0.616272 0.9624634 1.4521332 0.9624634 2.3236694l0 13.144226c0 1.8148956 -1.4712524 3.286148 -3.2861328 3.286148l-33.522217 0c-1.8148804 0 -3.2861328 -1.4712524 -3.2861328 -3.286148z" fill-rule="evenodd"/><path stroke="#000000" stroke-width="1.0" stroke-linejoin="round" stroke-linecap="butt" d="m632.06824 191.65623l0 0c0 -1.8148956 1.4712524 -3.2861633 3.2861328 -3.2861633l33.522217 0c0.871521 0 1.7073975 0.34622192 2.3236694 0.9624939c0.616272 0.616272 0.9624634 1.4521332 0.9624634 2.3236694l0 13.144226c0 1.8148956 -1.4712524 3.286148 -3.2861328 3.286148l-33.522217 0c-1.8148804 0 -3.2861328 -1.4712524 -3.2861328 -3.286148z" fill-rule="evenodd"/><path fill="#ffffff" d="m681.6273 191.65623l0 0c0 -1.8148956 1.4712524 -3.2861633 3.2861328 -3.2861633l33.522156 0c0.87158203 0 1.7073975 0.34622192 2.3236694 0.9624939c0.616272 0.616272 0.9625244 1.4521332 0.9625244 2.3236694l0 13.144226c0 1.8148956 -1.4712524 3.286148 -3.2861938 3.286148l-33.522156 0c-1.8148804 0 -3.2861328 -1.4712524 -3.2861328 -3.286148z" fill-rule="evenodd"/><path stroke="#000000" stroke-width="1.0" stroke-linejoin="round" stroke-linecap="butt" d="m681.6273 191.65623l0 0c0 -1.8148956 1.4712524 -3.2861633 3.2861328 -3.2861633l33.522156 0c0.87158203 0 1.7073975 0.34622192 2.3236694 0.9624939c0.616272 0.616272 0.9625244 1.4521332 0.9625244 2.3236694l0 13.144226c0 1.8148956 -1.4712524 3.286148 -3.2861938 3.286148l-33.522156 0c-1.8148804 0 -3.2861328 -1.4712524 -3.2861328 -3.286148z" fill-rule="evenodd"/><path fill="#ffffff" d="m732.18634 191.65623l0 0c0 -1.8148956 1.4712524 -3.2861633 3.2861938 -3.2861633l33.522156 0c0.871521 0 1.7073975 0.34622192 2.3236694 0.9624939c0.616272 0.616272 0.9624634 1.4521332 0.9624634 2.3236694l0 13.144226c0 1.8148956 -1.4712524 3.286148 -3.2861328 3.286148l-33.522156 0c-1.8149414 0 -3.2861938 -1.4712524 -3.2861938 -3.286148z" fill-rule="evenodd"/><path stroke="#000000" stroke-width="1.0" stroke-linejoin="round" stroke-linecap="butt" d="m732.18634 191.65623l0 0c0 -1.8148956 1.4712524 -3.2861633 3.2861938 -3.2861633l33.522156 0c0.871521 0 1.7073975 0.34622192 2.3236694 0.9624939c0.616272 0.616272 0.9624634 1.4521332 0.9624634 2.3236694l0 13.144226c0 1.8148956 -1.4712524 3.286148 -3.2861328 3.286148l-33.522156 0c-1.8149414 0 -3.2861938 -1.4712524 -3.2861938 -3.286148z" fill-rule="evenodd"/><path fill="#ffffff" d="m581.5197 229.1208l0 0c0 -1.8148956 1.4712524 -3.2861633 3.2861328 -3.2861633l33.522156 0c0.87158203 0 1.7073975 0.34622192 2.3236694 0.9624939c0.616272 0.616272 0.9625244 1.4521179 0.9625244 2.3236694l0 13.144226c0 1.8148956 -1.4713135 3.286148 -3.2861938 3.286148l-33.522156 0c-1.8148804 0 -3.2861328 -1.4712524 -3.2861328 -3.286148z" fill-rule="evenodd"/><path stroke="#000000" stroke-width="1.0" stroke-linejoin="round" stroke-linecap="butt" d="m581.5197 229.1208l0 0c0 -1.8148956 1.4712524 -3.2861633 3.2861328 -3.2861633l33.522156 0c0.87158203 0 1.7073975 0.34622192 2.3236694 0.9624939c0.616272 0.616272 0.9625244 1.4521179 0.9625244 2.3236694l0 13.144226c0 1.8148956 -1.4713135 3.286148 -3.2861938 3.286148l-33.522156 0c-1.8148804 0 -3.2861328 -1.4712524 -3.2861328 -3.286148z" fill-rule="evenodd"/><path fill="#ffffff" d="m632.06824 229.1208l0 0c0 -1.8148956 1.4712524 -3.2861633 3.2861328 -3.2861633l33.522217 0c0.871521 0 1.7073975 0.34622192 2.3236694 0.9624939c0.616272 0.616272 0.9624634 1.4521179 0.9624634 2.3236694l0 13.144226c0 1.8148956 -1.4712524 3.286148 -3.2861328 3.286148l-33.522217 0c-1.8148804 0 -3.2861328 -1.4712524 -3.2861328 -3.286148z" fill-rule="evenodd"/><path stroke="#000000" stroke-width="1.0" stroke-linejoin="round" stroke-linecap="butt" d="m632.06824 229.1208l0 0c0 -1.8148956 1.4712524 -3.2861633 3.2861328 -3.2861633l33.522217 0c0.871521 0 1.7073975 0.34622192 2.3236694 0.9624939c0.616272 0.616272 0.9624634 1.4521179 0.9624634 2.3236694l0 13.144226c0 1.8148956 -1.4712524 3.286148 -3.2861328 3.286148l-33.522217 0c-1.8148804 0 -3.2861328 -1.4712524 -3.2861328 -3.286148z" fill-rule="evenodd"/><path fill="#ffffff" d="m681.6273 229.1208l0 0c0 -1.8148956 1.4712524 -3.2861633 3.2861328 -3.2861633l33.522156 0c0.87158203 0 1.7073975 0.34622192 2.3236694 0.9624939c0.616272 0.616272 0.9625244 1.4521179 0.9625244 2.3236694l0 13.144226c0 1.8148956 -1.4712524 3.286148 -3.2861938 3.286148l-33.522156 0c-1.8148804 0 -3.2861328 -1.4712524 -3.2861328 -3.286148z" fill-rule="evenodd"/><path stroke="#000000" stroke-width="1.0" stroke-linejoin="round" stroke-linecap="butt" d="m681.6273 229.1208l0 0c0 -1.8148956 1.4712524 -3.2861633 3.2861328 -3.2861633l33.522156 0c0.87158203 0 1.7073975 0.34622192 2.3236694 0.9624939c0.616272 0.616272 0.9625244 1.4521179 0.9625244 2.3236694l0 13.144226c0 1.8148956 -1.4712524 3.286148 -3.2861938 3.286148l-33.522156 0c-1.8148804 0 -3.2861328 -1.4712524 -3.2861328 -3.286148z" fill-rule="evenodd"/><path fill="#ffffff" d="m732.18634 229.1208l0 0c0 -1.8148956 1.4712524 -3.2861633 3.2861938 -3.2861633l33.522156 0c0.871521 0 1.7073975 0.34622192 2.3236694 0.9624939c0.616272 0.616272 0.9624634 1.4521179 0.9624634 2.3236694l0 13.144226c0 1.8148956 -1.4712524 3.286148 -3.2861328 3.286148l-33.522156 0c-1.8149414 0 -3.2861938 -1.4712524 -3.2861938 -3.286148z" fill-rule="evenodd"/><path stroke="#000000" stroke-width="1.0" stroke-linejoin="round" stroke-linecap="butt" d="m732.18634 229.1208l0 0c0 -1.8148956 1.4712524 -3.2861633 3.2861938 -3.2861633l33.522156 0c0.871521 0 1.7073975 0.34622192 2.3236694 0.9624939c0.616272 0.616272 0.9624634 1.4521179 0.9624634 2.3236694l0 13.144226c0 1.8148956 -1.4712524 3.286148 -3.2861328 3.286148l-33.522156 0c-1.8149414 0 -3.2861938 -1.4712524 -3.2861938 -3.286148z" fill-rule="evenodd"/><path fill="#000000" fill-opacity="0.0" d="m167.94226 264.69815l-21.884521 100.97638l-68.81102 89.90289l-37.435696 25.309723l-17.929134 21.091858" fill-rule="evenodd"/><path stroke="#000000" stroke-width="1.0" stroke-linejoin="round" stroke-linecap="butt" d="m167.94226 264.69815l-21.884521 100.97638l-68.81102 89.90289l-37.435696 25.309723l-17.929134 21.091858" fill-rule="evenodd"/><path fill="#000000" fill-opacity="0.0" d="m40.866142 479.83203l867.3884 -0.5275574" fill-rule="evenodd"/><path stroke="#000000" stroke-width="1.0" stroke-linejoin="round" stroke-linecap="butt" d="m40.866142 479.83203l867.3884 -0.5275574" fill-rule="evenodd"/><path fill="#000000" fill-opacity="0.0" d="m923.0184 500.13385l-10.808411 -17.40158l-36.120728 -28.737518l-55.892395 -88.32022l-18.719177 -101.23883l-633.5354 0.79000854" fill-rule="evenodd"/><path stroke="#000000" stroke-width="1.0" stroke-linejoin="round" stroke-linecap="butt" d="m923.0184 500.13385l-10.808411 -17.40158l-36.120728 -28.737518l-55.892395 -88.32022l-18.719177 -101.23883l-633.5354 0.79000854" fill-rule="evenodd"/><path fill="#000000" fill-opacity="0.0" d="m170.84251 266.01837l-20.301834 101.76642" fill-rule="evenodd"/><path stroke="#000000" stroke-width="1.0" stroke-linejoin="round" stroke-linecap="butt" d="m170.84251 266.01837l-20.301834 101.76642" fill-rule="evenodd"/><path fill="#000000" fill-opacity="0.0" d="m797.52496 265.7533l16.343811 102.8215" fill-rule="evenodd"/><path stroke="#000000" stroke-width="1.0" stroke-linejoin="round" stroke-linecap="butt" d="m797.52496 265.7533l16.343811 102.8215" fill-rule="evenodd"/><path fill="#000000" fill-opacity="0.0" d="m813.8688 368.04724l5.538025 1.5826721l53.782166 86.73755l28.737549 22.409454" fill-rule="evenodd"/><path stroke="#000000" stroke-width="1.0" stroke-linejoin="round" stroke-linecap="butt" d="m813.8688 368.04724l5.538025 1.5826721l53.782166 86.73755l28.737549 22.409454" fill-rule="evenodd"/><path fill="#000000" fill-opacity="0.0" d="m866.59845 446.3491l-778.0131 0.5275574" fill-rule="evenodd"/><path stroke="#000000" stroke-width="1.0" stroke-linejoin="round" stroke-linecap="butt" d="m866.59845 446.3491l-778.0131 0.5275574" fill-rule="evenodd"/><path fill="#000000" fill-opacity="0.0" d="m47.1916 479.56955l36.12073 -25.309692l27.154861 -36.910767" fill-rule="evenodd"/><path stroke="#000000" stroke-width="1.0" stroke-linejoin="round" stroke-linecap="butt" d="m47.1916 479.56955l36.12073 -25.309692l27.154861 -36.910767" fill-rule="evenodd"/><path fill="#000000" fill-opacity="0.0" d="m220.40683 265.4908l-17.13649 102.02887" fill-rule="evenodd"/><path stroke="#000000" stroke-width="1.0" stroke-linejoin="round" stroke-linecap="butt" d="m220.40683 265.4908l-17.13649 102.02887" fill-rule="evenodd"/><path fill="#000000" fill-opacity="0.0" d="m244.66142 265.7533l-15.818909 101.76639" fill-rule="evenodd"/><path stroke="#000000" stroke-width="1.0" stroke-linejoin="round" stroke-linecap="butt" d="m244.66142 265.7533l-15.818909 101.76639" fill-rule="evenodd"/><path fill="#000000" fill-opacity="0.0" d="m269.70865 265.2257l-14.501297 103.08664" fill-rule="evenodd"/><path stroke="#000000" stroke-width="1.0" stroke-linejoin="round" stroke-linecap="butt" d="m269.70865 265.2257l-14.501297 103.08664" fill-rule="evenodd"/><path fill="#000000" fill-opacity="0.0" d="m294.7533 264.69815l-13.181122 102.82153" fill-rule="evenodd"/><path stroke="#000000" stroke-width="1.0" stroke-linejoin="round" stroke-linecap="butt" d="m294.7533 264.69815l-13.181122 102.82153" fill-rule="evenodd"/><path fill="#000000" fill-opacity="0.0" d="m307.937 367.25723l11.335968 -102.82153" fill-rule="evenodd"/><path stroke="#000000" stroke-width="1.0" stroke-linejoin="round" stroke-linecap="butt" d="m307.937 367.25723l11.335968 -102.82153" fill-rule="evenodd"/><path fill="#000000" fill-opacity="0.0" d="m344.0551 264.96326l-10.545929 103.87402" fill-rule="evenodd"/><path stroke="#000000" stroke-width="1.0" stroke-linejoin="round" stroke-linecap="butt" d="m344.0551 264.96326l-10.545929 103.87402" fill-rule="evenodd"/><path fill="#000000" fill-opacity="0.0" d="m360.40158 367.51968l8.435699 -102.55643" fill-rule="evenodd"/><path stroke="#000000" stroke-width="1.0" stroke-linejoin="round" stroke-linecap="butt" d="m360.40158 367.51968l8.435699 -102.55643" fill-rule="evenodd"/><path fill="#000000" fill-opacity="0.0" d="m393.88452 266.28085l-7.383209 103.34906" fill-rule="evenodd"/><path stroke="#000000" stroke-width="1.0" stroke-linejoin="round" stroke-linecap="butt" d="m393.88452 266.28085l-7.383209 103.34906" fill-rule="evenodd"/><path fill="#000000" fill-opacity="0.0" d="m413.13123 368.5748l5.2729797 -103.083984" fill-rule="evenodd"/><path stroke="#000000" stroke-width="1.0" stroke-linejoin="round" stroke-linecap="butt" d="m413.13123 368.5748l5.2729797 -103.083984" fill-rule="evenodd"/><path fill="#000000" fill-opacity="0.0" d="m443.44882 266.01837l-4.480316 102.81891" fill-rule="evenodd"/><path stroke="#000000" stroke-width="1.0" stroke-linejoin="round" stroke-linecap="butt" d="m443.44882 266.01837l-4.480316 102.81891" fill-rule="evenodd"/><path fill="#000000" fill-opacity="0.0" d="m465.85828 368.04724l2.3726807 -102.82153" fill-rule="evenodd"/><path stroke="#000000" stroke-width="1.0" stroke-linejoin="round" stroke-linecap="butt" d="m465.85828 368.04724l2.3726807 -102.82153" fill-rule="evenodd"/><path fill="#000000" fill-opacity="0.0" d="m493.5433 266.28085l-1.8477783 102.293945" fill-rule="evenodd"/><path stroke="#000000" stroke-width="1.0" stroke-linejoin="round" stroke-linecap="butt" d="m493.5433 266.28085l-1.8477783 102.293945" fill-rule="evenodd"/><path fill="#000000" fill-opacity="0.0" d="m518.58795 367.7848l-0.5275879 -102.293976" fill-rule="evenodd"/><path stroke="#000000" stroke-width="1.0" stroke-linejoin="round" stroke-linecap="butt" d="m518.58795 367.7848l-0.5275879 -102.293976" fill-rule="evenodd"/><path fill="#000000" fill-opacity="0.0" d="m543.1076 266.01837l1.3175659 102.02887" fill-rule="evenodd"/><path stroke="#000000" stroke-width="1.0" stroke-linejoin="round" stroke-linecap="butt" d="m543.1076 266.01837l1.3175659 102.02887" fill-rule="evenodd"/><path fill="#000000" fill-opacity="0.0" d="m571.5801 366.99213l-3.6903076 -101.50131" fill-rule="evenodd"/><path stroke="#000000" stroke-width="1.0" stroke-linejoin="round" stroke-linecap="butt" d="m571.5801 366.99213l-3.6903076 -101.50131" fill-rule="evenodd"/><path fill="#000000" fill-opacity="0.0" d="m571.84515 266.28085l3.9527588 103.083984" fill-rule="evenodd"/><path stroke="#000000" stroke-width="1.0" stroke-linejoin="round" stroke-linecap="butt" d="m571.84515 266.28085l3.9527588 103.083984" fill-rule="evenodd"/><path fill="#757575" d="m581.8635 446.3491l4.4802856 -0.2624817l-10.280823 -75.92914l-3.6903076 0l8.43573 71.973755z" fill-rule="evenodd"/><path stroke="#000000" stroke-width="1.0" stroke-linejoin="round" stroke-linecap="butt" d="m581.8635 446.3491l4.4802856 -0.2624817l-10.280823 -75.92914l-3.6903076 0l8.43573 71.973755z" fill-rule="evenodd"/><path fill="#000000" fill-opacity="0.0" d="m148.95801 447.14172l54.04724 -81.20471" fill-rule="evenodd"/><path stroke="#000000" stroke-width="1.0" stroke-linejoin="round" stroke-linecap="butt" d="m148.95801 447.14172l54.04724 -81.20471" fill-rule="evenodd"/><path fill="#000000" fill-opacity="0.0" d="m180.33333 448.1942l48.509186 -81.46457" fill-rule="evenodd"/><path stroke="#000000" stroke-width="1.0" stroke-linejoin="round" stroke-linecap="butt" d="m180.33333 448.1942l48.509186 -81.46457" fill-rule="evenodd"/><path fill="#000000" fill-opacity="0.0" d="m211.17848 446.87665l44.29396 -80.93964" fill-rule="evenodd"/><path stroke="#000000" stroke-width="1.0" stroke-linejoin="round" stroke-linecap="butt" d="m211.17848 446.87665l44.29396 -80.93964" fill-rule="evenodd"/><path fill="#000000" fill-opacity="0.0" d="m241.2336 446.0866l40.076126 -79.62204" fill-rule="evenodd"/><path stroke="#000000" stroke-width="1.0" stroke-linejoin="round" stroke-linecap="butt" d="m241.2336 446.0866l40.076126 -79.62204" fill-rule="evenodd"/><path fill="#000000" fill-opacity="0.0" d="m272.8714 446.0866l34.27295 -78.82938" fill-rule="evenodd"/><path stroke="#000000" stroke-width="1.0" stroke-linejoin="round" stroke-linecap="butt" d="m272.8714 446.0866l34.27295 -78.82938" fill-rule="evenodd"/><path fill="#000000" fill-opacity="0.0" d="m333.7743 367.25723l-31.11026 81.20209" fill-rule="evenodd"/><path stroke="#000000" stroke-width="1.0" stroke-linejoin="round" stroke-linecap="butt" d="m333.7743 367.25723l-31.11026 81.20209" fill-rule="evenodd"/><path fill="#000000" fill-opacity="0.0" d="m334.30185 447.14172l26.099731 -81.99475" fill-rule="evenodd"/><path stroke="#000000" stroke-width="1.0" stroke-linejoin="round" stroke-linecap="butt" d="m334.30185 447.14172l26.099731 -81.99475" fill-rule="evenodd"/><path fill="#000000" fill-opacity="0.0" d="m386.5013 368.5748l-22.409454 80.93964" fill-rule="evenodd"/><path stroke="#000000" stroke-width="1.0" stroke-linejoin="round" stroke-linecap="butt" d="m386.5013 368.5748l-22.409454 80.93964" fill-rule="evenodd"/><path fill="#000000" fill-opacity="0.0" d="m395.2021 447.4042l17.664062 -80.14697" fill-rule="evenodd"/><path stroke="#000000" stroke-width="1.0" stroke-linejoin="round" stroke-linecap="butt" d="m395.2021 447.4042l17.664062 -80.14697" fill-rule="evenodd"/><path fill="#000000" fill-opacity="0.0" d="m438.9685 367.7848l-12.656158 79.88449" fill-rule="evenodd"/><path stroke="#000000" stroke-width="1.0" stroke-linejoin="round" stroke-linecap="butt" d="m438.9685 367.7848l-12.656158 79.88449" fill-rule="evenodd"/><path fill="#000000" fill-opacity="0.0" d="m466.12335 366.72964l-8.963257 80.41208" fill-rule="evenodd"/><path stroke="#000000" stroke-width="1.0" stroke-linejoin="round" stroke-linecap="butt" d="m466.12335 366.72964l-8.963257 80.41208" fill-rule="evenodd"/><path fill="#000000" fill-opacity="0.0" d="m491.96063 368.31235l-3.690277 80.409424" fill-rule="evenodd"/><path stroke="#000000" stroke-width="1.0" stroke-linejoin="round" stroke-linecap="butt" d="m491.96063 368.31235l-3.690277 80.409424" fill-rule="evenodd"/><path fill="#000000" fill-opacity="0.0" d="m519.1155 446.87665l-0.26245117 -80.67456" fill-rule="evenodd"/><path stroke="#000000" stroke-width="1.0" stroke-linejoin="round" stroke-linecap="butt" d="m519.1155 446.87665l-0.26245117 -80.67456" fill-rule="evenodd"/><path fill="#000000" fill-opacity="0.0" d="m544.4252 367.51968l6.0629883 80.93964" fill-rule="evenodd"/><path stroke="#000000" stroke-width="1.0" stroke-linejoin="round" stroke-linecap="butt" d="m544.4252 367.51968l6.0629883 80.93964" fill-rule="evenodd"/><path fill="#000000" fill-opacity="0.0" d="m195.62466 265.2257l-19.509186 102.82153l-52.467186 79.62204" fill-rule="evenodd"/><path stroke="#000000" stroke-width="1.0" stroke-linejoin="round" stroke-linecap="butt" d="m195.62466 265.2257l-19.509186 102.82153l-52.467186 79.62204" fill-rule="evenodd"/><path fill="#000000" fill-opacity="0.0" d="m813.4934 367.93176l-237.9107 0l-425.5066 -0.6929321" fill-rule="evenodd"/><path stroke="#000000" stroke-width="1.0" stroke-linejoin="round" stroke-linecap="butt" d="m813.4934 367.93176l-237.9107 0l-425.5066 -0.6929321" fill-rule="evenodd"/><path fill="#000000" fill-opacity="0.0" d="m597.19684 265.40158l5.0131226 102.87402" fill-rule="evenodd"/><path stroke="#000000" stroke-width="1.0" stroke-linejoin="round" stroke-linecap="butt" d="m597.19684 265.40158l5.0131226 102.87402" fill-rule="evenodd"/><path fill="#000000" fill-opacity="0.0" d="m629.1837 367.93176l-7.435669 -102.0105" fill-rule="evenodd"/><path stroke="#000000" stroke-width="1.0" stroke-linejoin="round" stroke-linecap="butt" d="m629.1837 367.93176l-7.435669 -102.0105" fill-rule="evenodd"/><path fill="#000000" fill-opacity="0.0" d="m646.9921 265.74802l8.125977 102.700806" fill-rule="evenodd"/><path stroke="#000000" stroke-width="1.0" stroke-linejoin="round" stroke-linecap="butt" d="m646.9921 265.74802l8.125977 102.700806" fill-rule="evenodd"/><path fill="#000000" fill-opacity="0.0" d="m681.2257 366.8924l-9.3359375 -101.3176" fill-rule="evenodd"/><path stroke="#000000" stroke-width="1.0" stroke-linejoin="round" stroke-linecap="butt" d="m681.2257 366.8924l-9.3359375 -101.3176" fill-rule="evenodd"/><path fill="#000000" fill-opacity="0.0" d="m697.1312 266.2651l10.89502 102.35693" fill-rule="evenodd"/><path stroke="#000000" stroke-width="1.0" stroke-linejoin="round" stroke-linecap="butt" d="m697.1312 266.2651l10.89502 102.35693" fill-rule="evenodd"/><path fill="#000000" fill-opacity="0.0" d="m734.9974 367.75854l-12.795288 -102.53021" fill-rule="evenodd"/><path stroke="#000000" stroke-width="1.0" stroke-linejoin="round" stroke-linecap="butt" d="m734.9974 367.75854l-12.795288 -102.53021" fill-rule="evenodd"/><path fill="#000000" fill-opacity="0.0" d="m747.61945 266.09186l13.658752 102.53018" fill-rule="evenodd"/><path stroke="#000000" stroke-width="1.0" stroke-linejoin="round" stroke-linecap="butt" d="m747.61945 266.09186l13.658752 102.53018" fill-rule="evenodd"/><path fill="#000000" fill-opacity="0.0" d="m787.7323 367.75854l-15.21521 -101.83728" fill-rule="evenodd"/><path stroke="#000000" stroke-width="1.0" stroke-linejoin="round" stroke-linecap="butt" d="m787.7323 367.75854l-15.21521 -101.83728" fill-rule="evenodd"/><path fill="#ffffff" d="m823.8976 421.72308l0 0c0.20007324 -3.0179749 6.968628 -5.0344543 15.118103 -4.503937l0 0c8.149475 0.5305481 14.59375 3.407196 14.393738 6.4252014l0 0c-0.20007324 3.0180054 -6.968689 5.034485 -15.118103 4.503937l0 0c-8.149475 -0.5305481 -14.59375 -3.407196 -14.393738 -6.4252014z" fill-rule="evenodd"/><path stroke="#000000" stroke-width="1.0" stroke-linejoin="round" stroke-linecap="butt" d="m823.8976 421.72308l0 0c0.20007324 -3.0179749 6.968628 -5.0344543 15.118103 -4.503937l0 0c8.149475 0.5305481 14.59375 3.407196 14.393738 6.4252014l0 0c-0.20007324 3.0180054 -6.968689 5.034485 -15.118103 4.503937l0 0c-8.149475 -0.5305481 -14.59375 -3.407196 -14.393738 -6.4252014z" fill-rule="evenodd"/><path fill="#000000" fill-opacity="0.0" d="m823.0026 435.70865l0.6929321 -13.48819" fill-rule="evenodd"/><path stroke="#000000" stroke-width="1.0" stroke-linejoin="round" stroke-linecap="butt" d="m823.0026 435.70865l0.6929321 -13.48819" fill-rule="evenodd"/><path fill="#000000" fill-opacity="0.0" d="m853.6063 423.77692l-1.3832397 13.141724" fill-rule="evenodd"/><path stroke="#000000" stroke-width="1.0" stroke-linejoin="round" stroke-linecap="butt" d="m853.6063 423.77692l-1.3832397 13.141724" fill-rule="evenodd"/><path fill="#000000" fill-opacity="0.0" d="m852.18634 436.81366c-0.5831299 0.3433838 -2.4050903 1.5397949 -3.4986572 2.0603638c-1.0936279 0.52053833 -1.9484253 0.8753052 -3.0629883 1.0629883c-1.114624 0.18765259 -1.8329468 0.10455322 -3.6246948 0.06298828c-1.791748 -0.04156494 -5.0949097 -0.07260132 -7.1259766 -0.3123474c-2.031067 -0.23971558 -3.5083008 -0.60498047 -5.060364 -1.1259766c-1.552063 -0.5209961 -3.168457 -1.4273682 -4.251953 -2.0c-1.0835571 -0.5726013 -1.8744507 -1.1964111 -2.2493896 -1.4356995" fill-rule="evenodd"/><path stroke="#000000" stroke-width="1.0" stroke-linejoin="round" stroke-linecap="butt" d="m852.18634 436.81366c-0.5831299 0.3433838 -2.4050903 1.5397949 -3.4986572 2.0603638c-1.0936279 0.52053833 -1.9484253 0.8753052 -3.0629883 1.0629883c-1.114624 0.18765259 -1.8329468 0.10455322 -3.6246948 0.06298828c-1.791748 -0.04156494 -5.0949097 -0.07260132 -7.1259766 -0.3123474c-2.031067 -0.23971558 -3.5083008 -0.60498047 -5.060364 -1.1259766c-1.552063 -0.5209961 -3.168457 -1.4273682 -4.251953 -2.0c-1.0835571 -0.5726013 -1.8744507 -1.1964111 -2.2493896 -1.4356995" fill-rule="evenodd"/><path fill="#000000" fill-opacity="0.0" d="m80.95538 473.8504l19.060364 -14.068237" fill-rule="evenodd"/><path stroke="#000000" stroke-width="1.0" stroke-linejoin="round" stroke-linecap="butt" d="m80.95538 473.8504l19.060364 -14.068237" fill-rule="evenodd"/><path fill="#000000" fill-opacity="0.0" d="m114.173225 473.66928l17.244102 -14.160095" fill-rule="evenodd"/><path stroke="#000000" stroke-width="1.0" stroke-linejoin="round" stroke-linecap="butt" d="m114.173225 473.66928l17.244102 -14.160095" fill-rule="evenodd"/><path fill="#000000" fill-opacity="0.0" d="m146.30183 474.0315l17.608932 -15.881897" fill-rule="evenodd"/><path stroke="#000000" stroke-width="1.0" stroke-linejoin="round" stroke-linecap="butt" d="m146.30183 474.0315l17.608932 -15.881897" fill-rule="evenodd"/><path fill="#000000" fill-opacity="0.0" d="m179.24934 473.75854l16.51706 -15.338593" fill-rule="evenodd"/><path stroke="#000000" stroke-width="1.0" stroke-linejoin="round" stroke-linecap="butt" d="m179.24934 473.75854l16.51706 -15.338593" fill-rule="evenodd"/><path fill="#000000" fill-opacity="0.0" d="m213.0105 473.75854l13.522308 -15.246735" fill-rule="evenodd"/><path stroke="#000000" stroke-width="1.0" stroke-linejoin="round" stroke-linecap="butt" d="m213.0105 473.75854l13.522308 -15.246735" fill-rule="evenodd"/><path fill="#000000" fill-opacity="0.0" d="m245.50131 473.8504l12.070862 -14.522308" fill-rule="evenodd"/><path stroke="#000000" stroke-width="1.0" stroke-linejoin="round" stroke-linecap="butt" d="m245.50131 473.8504l12.070862 -14.522308" fill-rule="evenodd"/><path fill="#000000" fill-opacity="0.0" d="m278.71915 474.2126l10.346466 -14.068237" fill-rule="evenodd"/><path stroke="#000000" stroke-width="1.0" stroke-linejoin="round" stroke-linecap="butt" d="m278.71915 474.2126l10.346466 -14.068237" fill-rule="evenodd"/><path fill="#000000" fill-opacity="0.0" d="m312.20996 473.93964l8.349091 -13.795288" fill-rule="evenodd"/><path stroke="#000000" stroke-width="1.0" stroke-linejoin="round" stroke-linecap="butt" d="m312.20996 473.93964l8.349091 -13.795288" fill-rule="evenodd"/><path fill="#000000" fill-opacity="0.0" d="m345.33597 474.12335l6.6246643 -13.887146" fill-rule="evenodd"/><path stroke="#000000" stroke-width="1.0" stroke-linejoin="round" stroke-linecap="butt" d="m345.33597 474.12335l6.6246643 -13.887146" fill-rule="evenodd"/><path fill="#000000" fill-opacity="0.0" d="m377.82678 474.0315l5.5380554 -13.887146" fill-rule="evenodd"/><path stroke="#000000" stroke-width="1.0" stroke-linejoin="round" stroke-linecap="butt" d="m377.82678 474.0315l5.5380554 -13.887146" fill-rule="evenodd"/><path fill="#000000" fill-opacity="0.0" d="m411.13647 473.8504l4.1732483 -13.706055" fill-rule="evenodd"/><path stroke="#000000" stroke-width="1.0" stroke-linejoin="round" stroke-linecap="butt" d="m411.13647 473.8504l4.1732483 -13.706055" fill-rule="evenodd"/><path fill="#000000" fill-opacity="0.0" d="m444.71652 474.12335l2.4514465 -13.795258" fill-rule="evenodd"/><path stroke="#000000" stroke-width="1.0" stroke-linejoin="round" stroke-linecap="butt" d="m444.71652 474.12335l2.4514465 -13.795258" fill-rule="evenodd"/><path fill="#000000" fill-opacity="0.0" d="m478.11548 473.8504l0.9081421 -13.068237" fill-rule="evenodd"/><path stroke="#000000" stroke-width="1.0" stroke-linejoin="round" stroke-linecap="butt" d="m478.11548 473.8504l0.9081421 -13.068237" fill-rule="evenodd"/><path fill="#000000" fill-opacity="0.0" d="m511.15222 474.12335l0.0892334 -11.616791" fill-rule="evenodd"/><path stroke="#000000" stroke-width="1.0" stroke-linejoin="round" stroke-linecap="butt" d="m511.15222 474.12335l0.0892334 -11.616791" fill-rule="evenodd"/><path fill="#000000" fill-opacity="0.0" d="m544.7323 474.2126l-1.2703857 -12.433044" fill-rule="evenodd"/><path stroke="#000000" stroke-width="1.0" stroke-linejoin="round" stroke-linecap="butt" d="m544.7323 474.2126l-1.2703857 -12.433044" fill-rule="evenodd"/><path fill="#000000" fill-opacity="0.0" d="m578.2231 474.2126l-2.359558 -12.070862" fill-rule="evenodd"/><path stroke="#000000" stroke-width="1.0" stroke-linejoin="round" stroke-linecap="butt" d="m578.2231 474.2126l-2.359558 -12.070862" fill-rule="evenodd"/><path fill="#000000" fill-opacity="0.0" d="m600.36743 475.2126l-3.8109741 -15.249329" fill-rule="evenodd"/><path stroke="#000000" stroke-width="1.0" stroke-linejoin="round" stroke-linecap="butt" d="m600.36743 475.2126l-3.8109741 -15.249329" fill-rule="evenodd"/><path fill="#000000" fill-opacity="0.0" d="m617.2493 474.75854l-5.354309 -16.246735" fill-rule="evenodd"/><path stroke="#000000" stroke-width="1.0" stroke-linejoin="round" stroke-linecap="butt" d="m617.2493 474.75854l-5.354309 -16.246735" fill-rule="evenodd"/><path fill="#000000" fill-opacity="0.0" d="m634.4934 475.2126l-5.9002075 -15.249329" fill-rule="evenodd"/><path stroke="#000000" stroke-width="1.0" stroke-linejoin="round" stroke-linecap="butt" d="m634.4934 475.2126l-5.9002075 -15.249329" fill-rule="evenodd"/><path fill="#000000" fill-opacity="0.0" d="m650.8294 475.2126l-6.35437 -15.157471" fill-rule="evenodd"/><path stroke="#000000" stroke-width="1.0" stroke-linejoin="round" stroke-linecap="butt" d="m650.8294 475.2126l-6.35437 -15.157471" fill-rule="evenodd"/><path fill="#000000" fill-opacity="0.0" d="m667.80054 474.93964l-7.3517456 -15.065613" fill-rule="evenodd"/><path stroke="#000000" stroke-width="1.0" stroke-linejoin="round" stroke-linecap="butt" d="m667.80054 474.93964l-7.3517456 -15.065613" fill-rule="evenodd"/><path fill="#000000" fill-opacity="0.0" d="m684.3202 475.02887l-7.624634 -14.43045" fill-rule="evenodd"/><path stroke="#000000" stroke-width="1.0" stroke-linejoin="round" stroke-linecap="butt" d="m684.3202 475.02887l-7.624634 -14.43045" fill-rule="evenodd"/><path fill="#000000" fill-opacity="0.0" d="m701.56433 475.02887l-8.713928 -14.519684" fill-rule="evenodd"/><path stroke="#000000" stroke-width="1.0" stroke-linejoin="round" stroke-linecap="butt" d="m701.56433 475.02887l-8.713928 -14.519684" fill-rule="evenodd"/><path fill="#000000" fill-opacity="0.0" d="m717.9895 474.93964l-9.076111 -14.522308" fill-rule="evenodd"/><path stroke="#000000" stroke-width="1.0" stroke-linejoin="round" stroke-linecap="butt" d="m717.9895 474.93964l-9.076111 -14.522308" fill-rule="evenodd"/><path fill="#000000" fill-opacity="0.0" d="m743.7664 474.93964l-9.803162 -13.433075" fill-rule="evenodd"/><path stroke="#000000" stroke-width="1.0" stroke-linejoin="round" stroke-linecap="butt" d="m743.7664 474.93964l-9.803162 -13.433075" fill-rule="evenodd"/><path fill="#ffffff" d="m703.2887 390.62466l2.1758423 6.08136l48.648315 0.18112183l-2.8136597 -6.08136z" fill-rule="evenodd"/><path stroke="#000000" stroke-width="1.0" stroke-linejoin="round" stroke-linecap="butt" d="m703.2887 390.62466l2.1758423 6.08136l48.648315 0.18112183l-2.8136597 -6.08136z" fill-rule="evenodd"/><path fill="#ffffff" d="m772.2651 391.5328l2.4488525 5.3543396l48.91864 -0.27297974l-3.902893 -5.897644z" fill-rule="evenodd"/><path stroke="#000000" stroke-width="1.0" stroke-linejoin="round" stroke-linecap="butt" d="m772.2651 391.5328l2.4488525 5.3543396l48.91864 -0.27297974l-3.902893 -5.897644z" fill-rule="evenodd"/><path fill="#000000" fill-opacity="0.0" d="m11.307087 502.14697l0.3963251 9.454071l3.3727036 2.7795105l13.55643 25.126038l1.5853024 1.123352l24.929132 2.118103l21.160103 45.690247l793.6221 2.5800781l0.7926636 1.2545776l10.383179 -1.5196533l18.380554 -48.601074l8.068298 -0.7952881l1.784729 1.3911133l9.587952 -0.068237305l18.05249 -31.275604l0 -10.845154" fill-rule="evenodd"/><path stroke="#000000" stroke-width="1.0" stroke-linejoin="round" stroke-linecap="butt" d="m11.307087 502.14697l0.3963251 9.454071l3.3727036 2.7795105l13.55643 25.126038l1.5853024 1.123352l24.929132 2.118103l21.160103 45.690247l793.6221 2.5800781l0.7926636 1.2545776l10.383179 -1.5196533l18.380554 -48.601074l8.068298 -0.7952881l1.784729 1.3911133l9.587952 -0.068237305l18.05249 -31.275604l0 -10.845154" fill-rule="evenodd"/><path fill="#000000" fill-opacity="0.0" d="m336.79004 82.25722l557.4173 0l0 65.03937l-557.4173 0z" fill-rule="evenodd"/><path fill="#ffffff" d="m97.96063 456.89764l-5.4934387 4.1207275l5.4934387 2.973755l4.577423 -4.2335815z" fill-rule="evenodd"/><path stroke="#000000" stroke-width="1.0" stroke-linejoin="round" stroke-linecap="butt" d="m97.96063 456.89764l-5.4934387 4.1207275l5.4934387 2.973755l4.577423 -4.2335815z" fill-rule="evenodd"/><path fill="#ffffff" d="m125.76903 459.8084l4.6902924 4.80838l4.9212646 -3.892395l-4.1181183 -3.88974z" fill-rule="evenodd"/><path stroke="#000000" stroke-width="1.0" stroke-linejoin="round" stroke-linecap="butt" d="m125.76903 459.8084l4.6902924 4.80838l4.9212646 -3.892395l-4.1181183 -3.88974z" fill-rule="evenodd"/><path fill="#ffffff" d="m157.4672 459.69553l4.577423 3.7769165l3.892395 -3.5485535l-3.892395 -3.2047424l-3.433075 3.433075" fill-rule="evenodd"/><path stroke="#000000" stroke-width="1.0" stroke-linejoin="round" stroke-linecap="butt" d="m157.4672 459.69553l4.577423 3.7769165l3.892395 -3.5485535l-3.892395 -3.2047424l-3.433075 3.433075" fill-rule="evenodd"/><path fill="#ffffff" d="m190.08136 460.15222l4.005249 3.433075l4.120743 -4.005249l-3.6614227 -2.8609009z" fill-rule="evenodd"/><path stroke="#000000" stroke-width="1.0" stroke-linejoin="round" stroke-linecap="butt" d="m190.08136 460.15222l4.005249 3.433075l4.120743 -4.005249l-3.6614227 -2.8609009z" fill-rule="evenodd"/><path fill="#ffffff" d="m221.66667 461.41208l3.0892334 2.2886963l3.6640472 -3.776886l-3.6640472 -2.4042053z" fill-rule="evenodd"/><path stroke="#000000" stroke-width="1.0" stroke-linejoin="round" stroke-linecap="butt" d="m221.66667 461.41208l3.0892334 2.2886963l3.6640472 -3.776886l-3.6640472 -2.4042053z" fill-rule="evenodd"/><path fill="#ffffff" d="m252.33595 461.41208l4.0052643 2.8609009l2.8608704 -3.661438l-4.005234 -2.9763794z" fill-rule="evenodd"/><path stroke="#000000" stroke-width="1.0" stroke-linejoin="round" stroke-linecap="butt" d="m252.33595 461.41208l4.0052643 2.8609009l2.8608704 -3.661438l-4.005234 -2.9763794z" fill-rule="evenodd"/><path fill="#ffffff" d="m284.72177 462.3281l3.7769165 2.0577393l2.5170593 -3.661438l-3.8897705 -1.4881897z" fill-rule="evenodd"/><path stroke="#000000" stroke-width="1.0" stroke-linejoin="round" stroke-linecap="butt" d="m284.72177 462.3281l3.7769165 2.0577393l2.5170593 -3.661438l-3.8897705 -1.4881897z" fill-rule="evenodd"/><path fill="#ffffff" d="m316.3071 461.86877l5.149597 2.2886963l1.6010437 -3.776886l-4.690277 -1.3727112z" fill-rule="evenodd"/><path stroke="#000000" stroke-width="1.0" stroke-linejoin="round" stroke-linecap="butt" d="m316.3071 461.86877l5.149597 2.2886963l1.6010437 -3.776886l-4.690277 -1.3727112z" fill-rule="evenodd"/><path fill="#ffffff" d="m349.83728 459.9239l-1.2598572 2.8609009l4.005249 1.2598267l1.0314941 -3.776886z" fill-rule="evenodd"/><path stroke="#000000" stroke-width="1.0" stroke-linejoin="round" stroke-linecap="butt" d="m349.83728 459.9239l-1.2598572 2.8609009l4.005249 1.2598267l1.0314941 -3.776886z" fill-rule="evenodd"/><path fill="#ffffff" d="m382.1076 459.00787l2.8609009 1.1443481l-1.2572327 3.0892334l-3.091858 -1.2572021z" fill-rule="evenodd"/><path stroke="#000000" stroke-width="1.0" stroke-linejoin="round" stroke-linecap="butt" d="m382.1076 459.00787l2.8609009 1.1443481l-1.2572327 3.0892334l-3.091858 -1.2572021z" fill-rule="evenodd"/><path fill="#ffffff" d="m413.92126 459.2362l3.0892334 0.9160156l-0.8005371 2.2887268l-2.7453918 -0.8005371z" fill-rule="evenodd"/><path stroke="#000000" stroke-width="1.0" stroke-linejoin="round" stroke-linecap="butt" d="m413.92126 459.2362l3.0892334 0.9160156l-0.8005371 2.2887268l-2.7453918 -0.8005371z" fill-rule="evenodd"/><path fill="#ffffff" d="m445.16272 459.58005l4.120758 0.5721741l-0.34384155 2.6325684l-4.1207275 -0.45669556z" fill-rule="evenodd"/><path stroke="#000000" stroke-width="1.0" stroke-linejoin="round" stroke-linecap="butt" d="m445.16272 459.58005l4.120758 0.5721741l-0.34384155 2.6325684l-4.1207275 -0.45669556z" fill-rule="evenodd"/><path fill="#ffffff" d="m477.09186 459.69553l4.4619446 0.45669556l-0.22833252 2.6325684l-4.805786 -0.34384155z" fill-rule="evenodd"/><path stroke="#000000" stroke-width="1.0" stroke-linejoin="round" stroke-linecap="butt" d="m477.09186 459.69553l4.4619446 0.45669556l-0.22833252 2.6325684l-4.805786 -0.34384155z" fill-rule="evenodd"/><path fill="#ffffff" d="m510.39108 461.75592l-0.22836304 2.9737244l2.7480469 -0.34381104l-0.5722046 -2.973755z" fill-rule="evenodd"/><path stroke="#000000" stroke-width="1.0" stroke-linejoin="round" stroke-linecap="butt" d="m510.39108 461.75592l-0.22836304 2.9737244l2.7480469 -0.34381104l-0.5722046 -2.973755z" fill-rule="evenodd"/><path fill="#ffffff" d="m541.5197 461.18372l3.661377 0.11288452l0.45672607 2.1758423l-4.005249 0.6850281z" fill-rule="evenodd"/><path stroke="#000000" stroke-width="1.0" stroke-linejoin="round" stroke-linecap="butt" d="m541.5197 461.18372l3.661377 0.11288452l0.45672607 2.1758423l-4.005249 0.6850281z" fill-rule="evenodd"/><path fill="#ffffff" d="m574.47766 461.6404l0.45672607 3.2047424l2.9763794 -0.5721741l-0.9160156 -3.089264z" fill-rule="evenodd"/><path stroke="#000000" stroke-width="1.0" stroke-linejoin="round" stroke-linecap="butt" d="m574.47766 461.6404l0.45672607 3.2047424l2.9763794 -0.5721741l-0.9160156 -3.089264z" fill-rule="evenodd"/><path fill="#ffffff" d="m594.1601 459.4672l3.548584 -0.8031616l0.9160156 2.5196838l-3.091858 0.6850586z" fill-rule="evenodd"/><path stroke="#000000" stroke-width="1.0" stroke-linejoin="round" stroke-linecap="butt" d="m594.1601 459.4672l3.548584 -0.8031616l0.9160156 2.5196838l-3.091858 0.6850586z" fill-rule="evenodd"/><path fill="#ffffff" d="m609.8373 458.66403l3.7769165 -1.3726807l0.6876221 2.2886963l-4.005249 1.1443481z" fill-rule="evenodd"/><path stroke="#000000" stroke-width="1.0" stroke-linejoin="round" stroke-linecap="butt" d="m609.8373 458.66403l3.7769165 -1.3726807l0.6876221 2.2886963l-4.005249 1.1443481z" fill-rule="evenodd"/><path fill="#ffffff" d="m626.52496 459.75198l3.7768555 -1.3727112l0.6876831 2.2886963l-4.005249 1.1443787z" fill-rule="evenodd"/><path stroke="#000000" stroke-width="1.0" stroke-linejoin="round" stroke-linecap="butt" d="m626.52496 459.75198l3.7768555 -1.3727112l0.6876831 2.2886963l-4.005249 1.1443787z" fill-rule="evenodd"/><path fill="#ffffff" d="m642.5276 459.75067l3.7768555 -1.3727112l0.6876831 2.2886963l-4.005249 1.1443787z" fill-rule="evenodd"/><path stroke="#000000" stroke-width="1.0" stroke-linejoin="round" stroke-linecap="butt" d="m642.5276 459.75067l3.7768555 -1.3727112l0.6876831 2.2886963l-4.005249 1.1443787z" fill-rule="evenodd"/><path fill="#ffffff" d="m658.5302 459.75067l3.7768555 -1.3727112l0.6876831 2.2886963l-4.005249 1.1443787z" fill-rule="evenodd"/><path stroke="#000000" stroke-width="1.0" stroke-linejoin="round" stroke-linecap="butt" d="m658.5302 459.75067l3.7768555 -1.3727112l0.6876831 2.2886963l-4.005249 1.1443787z" fill-rule="evenodd"/><path fill="#ffffff" d="m674.53284 460.26642l3.7768555 -1.3727112l0.6876831 2.2886963l-4.005249 1.1443787z" fill-rule="evenodd"/><path stroke="#000000" stroke-width="1.0" stroke-linejoin="round" stroke-linecap="butt" d="m674.53284 460.26642l3.7768555 -1.3727112l0.6876831 2.2886963l-4.005249 1.1443787z" fill-rule="evenodd"/><path fill="#ffffff" d="m690.53546 459.92126l3.7768555 -1.3727112l0.6876831 2.2887268l-4.005249 1.1443481z" fill-rule="evenodd"/><path stroke="#000000" stroke-width="1.0" stroke-linejoin="round" stroke-linecap="butt" d="m690.53546 459.92126l3.7768555 -1.3727112l0.6876831 2.2887268l-4.005249 1.1443481z" fill-rule="evenodd"/><path fill="#ffffff" d="m706.5381 459.75067l3.7768555 -1.3727112l0.6876831 2.2886963l-4.005249 1.1443787z" fill-rule="evenodd"/><path stroke="#000000" stroke-width="1.0" stroke-linejoin="round" stroke-linecap="butt" d="m706.5381 459.75067l3.7768555 -1.3727112l0.6876831 2.2886963l-4.005249 1.1443787z" fill-rule="evenodd"/><path fill="#ffffff" d="m731.9029 460.89633l3.7769165 -1.3727112l0.6876221 2.2887268l-4.005249 1.1443481z" fill-rule="evenodd"/><path stroke="#000000" stroke-width="1.0" stroke-linejoin="round" stroke-linecap="butt" d="m731.9029 460.89633l3.7769165 -1.3727112l0.6876221 2.2887268l-4.005249 1.1443481z" fill-rule="evenodd"/></g></svg>